<svg xmlns="http://www.w3.org/2000/svg" width="417" height="60" fill="none" viewBox="0 0 417 60"><path fill="#3d8f4a" d="M26.808 50.549a4.986 4.986 0 0 0 0 7.026 4.93 4.93 0 0 0 6.993 0 4.986 4.986 0 0 0 0-7.026l-3.497-3.514zM26.508 0h7.593v31.112l19.837-19.94 5.368 5.395-17.612 17.705h18.915v7.63H0v-7.63h18.915L1.303 16.567l5.368-5.394 19.837 19.939z"/><path fill="#263a2d" d="M102.124 49.343q-3.768 0-6.948-1.273a17 17 0 0 1-5.48-3.67q-2.3-2.397-3.572-5.626-1.272-3.279-1.272-7.144 0-3.768 1.32-6.948 1.32-3.23 3.72-5.578 2.397-2.398 5.626-3.718 3.23-1.321 6.997-1.321 2.446 0 4.795.684 2.398.637 4.355 1.909a14 14 0 0 1 3.425 3.033l-4.599 5.089a15.4 15.4 0 0 0-2.447-2.006 9.1 9.1 0 0 0-2.642-1.321 8.7 8.7 0 0 0-2.936-.49 10.1 10.1 0 0 0-3.963.783 9.8 9.8 0 0 0-3.18 2.202q-1.371 1.37-2.202 3.376-.783 1.958-.783 4.355 0 2.446.783 4.453a9.9 9.9 0 0 0 2.202 3.376q1.418 1.369 3.376 2.153 2.006.734 4.403.734 1.566 0 3.034-.44a10.6 10.6 0 0 0 2.691-1.224 11.2 11.2 0 0 0 2.251-1.81l3.572 5.724q-1.174 1.321-3.181 2.398-1.957 1.077-4.403 1.712a21 21 0 0 1-4.942.588M118.93 48.854V12.647h6.948v36.207zM132.539 48.854V22.97h6.948v25.884zm3.425-31.217q-2.006 0-3.131-.979-1.125-.978-1.126-2.789 0-1.663 1.126-2.691 1.174-1.076 3.131-1.076 2.005 0 3.132 1.027 1.125.979 1.125 2.74 0 1.713-1.175 2.74-1.124 1.028-3.082 1.028M157.18 49.343q-3.718 0-6.654-1.762-2.935-1.76-4.648-4.795-1.663-3.033-1.663-6.899 0-3.816 1.663-6.85 1.713-3.083 4.648-4.844 2.936-1.761 6.654-1.761 3.475 0 6.362 1.272t4.501 3.523l-3.816 4.6a7.6 7.6 0 0 0-1.713-1.665 8.4 8.4 0 0 0-2.25-1.223 6.9 6.9 0 0 0-2.447-.44q-2.007 0-3.571.979-1.519.93-2.398 2.593-.881 1.663-.881 3.816 0 2.104.881 3.768a7.74 7.74 0 0 0 2.494 2.642q1.567.978 3.524.979 1.271 0 2.398-.343a7.7 7.7 0 0 0 2.103-1.125 9.5 9.5 0 0 0 1.86-1.762l3.767 4.6q-1.663 2.103-4.6 3.425a15.5 15.5 0 0 1-6.214 1.272M178.074 41.075l-2.054-5.725 12.232-12.38h9.149zm-6.605 7.78V12.646h6.948v36.207zm17.516 0-9.296-11.695 4.893-3.914 12.77 15.608zM215.733 49.343q-3.768 0-6.949-1.273a17 17 0 0 1-5.479-3.67q-2.3-2.397-3.573-5.626-1.27-3.279-1.271-7.144 0-3.768 1.321-6.948 1.321-3.23 3.719-5.578 2.397-2.398 5.626-3.718 3.23-1.321 6.997-1.321 2.446 0 4.795.684 2.398.637 4.355 1.909a14 14 0 0 1 3.426 3.033l-4.601 5.089a15.4 15.4 0 0 0-2.446-2.006 9.1 9.1 0 0 0-2.642-1.321 8.7 8.7 0 0 0-2.936-.49q-2.104 0-3.963.783a9.8 9.8 0 0 0-3.18 2.202q-1.37 1.37-2.203 3.376-.782 1.958-.783 4.355 0 2.446.783 4.453a9.9 9.9 0 0 0 2.203 3.376q1.417 1.369 3.375 2.153 2.007.734 4.405.734 1.565 0 3.033-.44a10.6 10.6 0 0 0 2.691-1.224 11.2 11.2 0 0 0 2.251-1.81l3.571 5.724q-1.174 1.321-3.18 2.398-1.957 1.077-4.404 1.712a21 21 0 0 1-4.941.588M242.176 49.343q-3.23 0-5.823-1.762-2.594-1.76-4.109-4.795-1.518-3.033-1.517-6.948-.001-3.914 1.517-6.899 1.564-3.033 4.207-4.746 2.642-1.761 6.018-1.761 1.91 0 3.474.587 1.615.538 2.79 1.517a9.6 9.6 0 0 1 2.054 2.25 8.5 8.5 0 0 1 1.174 2.74l-1.467-.244V22.97h6.899v25.884h-6.997v-6.215l1.565-.146a8.3 8.3 0 0 1-1.271 2.593 10.1 10.1 0 0 1-2.203 2.202 11.5 11.5 0 0 1-2.886 1.517 10.8 10.8 0 0 1-3.425.538m1.908-6.019q1.957 0 3.425-.93 1.468-.928 2.251-2.592.832-1.713.832-3.964 0-2.202-.832-3.865-.784-1.665-2.251-2.593-1.468-.98-3.425-.979-1.91 0-3.376.979-1.418.93-2.25 2.593-.834 1.663-.833 3.865 0 2.25.833 3.964.832 1.663 2.25 2.593 1.467.93 3.376.93M263.383 48.854V22.97h6.654l.196 5.284-1.37.587q.538-1.761 1.909-3.18a10.8 10.8 0 0 1 3.376-2.349 9.9 9.9 0 0 1 4.109-.88q2.936 0 4.893 1.174 2.005 1.174 2.985 3.572 1.029 2.348 1.028 5.822v15.854h-6.949V33.539q0-1.762-.488-2.936-.49-1.175-1.517-1.713-.98-.586-2.447-.489-1.174 0-2.202.391a4.8 4.8 0 0 0-1.712 1.028 6 6 0 0 0-1.126 1.566 4.7 4.7 0 0 0-.391 1.908v15.56h-6.948M292.84 48.854V22.97h6.653l.196 5.284-1.369.587q.537-1.761 1.907-3.18a10.8 10.8 0 0 1 3.377-2.349 9.9 9.9 0 0 1 4.11-.88q2.936 0 4.893 1.174 2.005 1.174 2.985 3.572 1.027 2.348 1.027 5.822v15.854h-6.948V33.539q0-1.762-.489-2.936-.49-1.175-1.517-1.713-.98-.586-2.446-.489-1.175 0-2.202.391a4.8 4.8 0 0 0-1.713 1.028 6 6 0 0 0-1.125 1.566 4.6 4.6 0 0 0-.392 1.908v15.56h-6.947M331.989 49.343q-3.23 0-5.824-1.762-2.591-1.76-4.109-4.795-1.517-3.033-1.517-6.948 0-3.914 1.517-6.899 1.565-3.033 4.207-4.746 2.644-1.761 6.019-1.761 1.909 0 3.474.587 1.615.538 2.789 1.517a9.7 9.7 0 0 1 2.056 2.25 8.5 8.5 0 0 1 1.173 2.74l-1.467-.244V22.97h6.898v25.884h-6.996v-6.215l1.565-.146a8.4 8.4 0 0 1-1.271 2.593 10 10 0 0 1-2.203 2.202q-1.271.93-2.887 1.517a10.8 10.8 0 0 1-3.424.538m1.907-6.019q1.958 0 3.426-.93 1.467-.928 2.25-2.592.833-1.713.833-3.964 0-2.202-.833-3.865-.783-1.665-2.25-2.593-1.468-.98-3.426-.979-1.907 0-3.376.979-1.418.93-2.25 2.593t-.832 3.865q0 2.25.832 3.964.832 1.663 2.25 2.593 1.469.93 3.376.93M368.115 49.344q-1.713 0-3.328-.49a12 12 0 0 1-2.935-1.32q-1.32-.882-2.202-1.958-.881-1.125-1.125-2.3l1.565-.587-.342 6.067h-6.557v-36.11h6.949v16.392l-1.321-.538q.292-1.174 1.125-2.251a8 8 0 0 1 2.104-1.957 10.6 10.6 0 0 1 2.789-1.37 10.1 10.1 0 0 1 3.131-.49q3.376 0 6.019 1.762 2.641 1.713 4.159 4.746 1.565 3.033 1.565 6.948t-1.517 6.948-4.158 4.795q-2.595 1.713-5.921 1.713m-1.663-5.92q1.957 0 3.375-.93 1.468-.98 2.301-2.643.831-1.711.831-3.963 0-2.202-.831-3.914-.784-1.713-2.251-2.643-1.468-.93-3.425-.93-1.958 0-3.426.93t-2.299 2.643-.831 3.914q0 2.25.831 3.963.832 1.664 2.299 2.642 1.468.93 3.426.93M384.578 48.854V22.97h6.948v25.884zm3.425-31.217q-2.005 0-3.132-.979-1.124-.978-1.125-2.789 0-1.663 1.125-2.691 1.175-1.076 3.132-1.076 2.005 0 3.132 1.027 1.125.979 1.125 2.74 0 1.713-1.175 2.74-1.125 1.028-3.082 1.028M406.675 49.343q-3.621 0-6.459-1.175-2.789-1.222-4.501-3.327l4.305-3.718q1.517 1.614 3.376 2.348 1.86.685 3.719.685.733 0 1.321-.146.636-.196 1.077-.49.441-.342.636-.783.244-.489.244-1.027 0-1.077-.88-1.713-.49-.244-1.517-.587-1.028-.39-2.642-.832-2.496-.636-4.257-1.468-1.714-.881-2.74-1.957a8.2 8.2 0 0 1-1.371-2.201q-.44-1.224-.44-2.692 0-1.761.783-3.18a7.5 7.5 0 0 1 2.153-2.495 10.6 10.6 0 0 1 3.23-1.566 12.3 12.3 0 0 1 3.816-.587q2.006 0 3.914.489 1.909.49 3.523 1.419a12 12 0 0 1 2.887 2.104l-3.719 4.11a12 12 0 0 0-2.006-1.517 10.2 10.2 0 0 0-2.251-1.076q-1.174-.392-2.103-.392a7.3 7.3 0 0 0-1.517.147 3.2 3.2 0 0 0-1.077.44 2 2 0 0 0-.685.783 2.4 2.4 0 0 0-.196.979q0 .538.245 1.027.293.49.782.832.539.294 1.567.685 1.075.392 2.886.88 2.35.637 3.963 1.42 1.665.783 2.643 1.81a5.5 5.5 0 0 1 1.223 2.006q.391 1.125.391 2.496 0 2.397-1.369 4.306-1.321 1.86-3.67 2.935-2.349 1.028-5.284 1.028"/></svg>